<svg xmlns="http://www.w3.org/2000/svg" xmlns:xlink="http://www.w3.org/1999/xlink" width="128" zoomAndPan="magnify" viewBox="0 0 96 95.999999" height="128" preserveAspectRatio="xMidYMid meet" version="1.0"><defs><g/><clipPath id="cf555e0525"><path d="M 9.601562 16.453125 L 89.851562 16.453125 L 89.851562 78.703125 L 9.601562 78.703125 Z M 9.601562 16.453125 " clip-rule="nonzero"/></clipPath></defs><rect x="-9.6" width="115.2" fill="#ffffff" y="-9.6" height="115.199999" fill-opacity="1"/><rect x="-9.6" width="115.2" fill="#000000" y="-9.6" height="115.199999" fill-opacity="1"/><path fill="#ffffff" d="M 64.082031 59.332031 C 64.894531 59.332031 65.550781 59.992188 65.554688 60.804688 C 65.550781 61.617188 64.894531 62.277344 64.082031 62.277344 L 48.621094 62.277344 C 47.804688 62.277344 47.148438 61.617188 47.148438 60.804688 C 47.148438 59.992188 47.804688 59.332031 48.621094 59.332031 Z M 64.082031 59.332031 " fill-opacity="1" fill-rule="nonzero"/><path fill="#ffffff" d="M 29.890625 38.429688 C 30.46875 37.832031 31.371094 37.867188 31.972656 38.394531 L 42.46875 48.542969 C 43.367188 49.410156 43.367188 50.847656 42.46875 51.71875 L 31.972656 61.863281 C 31.390625 62.429688 30.457031 62.414062 29.890625 61.828125 C 29.328125 61.242188 29.34375 60.3125 29.925781 59.746094 L 39.875 50.128906 L 29.925781 40.511719 C 29.378906 39.929688 29.3125 39.027344 29.890625 38.429688 Z M 29.890625 38.429688 " fill-opacity="1" fill-rule="nonzero"/><g clip-path="url(#cf555e0525)"><path fill="#ffffff" d="M 74.742188 17.976562 C 75.515625 16.488281 77.675781 16.488281 78.453125 17.976562 C 80.152344 21.601562 82.5625 24.65625 86.035156 26.738281 L 88.25 28.074219 C 89.507812 28.945312 89.507812 30.820312 88.25 31.691406 L 86.035156 33.027344 C 85.023438 33.632812 84.074219 34.332031 83.203125 35.113281 C 83.214844 35.332031 83.222656 35.550781 83.222656 35.773438 L 83.222656 65.222656 C 83.222656 72.515625 77.1875 78.382812 69.96875 78.472656 L 22.851562 78.472656 C 15.535156 78.472656 9.601562 72.539062 9.601562 65.222656 L 9.601562 35.773438 C 9.601562 28.453125 15.535156 22.519531 22.851562 22.519531 L 69.96875 22.519531 C 70.625 22.519531 71.269531 22.570312 71.902344 22.664062 C 73.089844 21.230469 73.949219 19.652344 74.742188 17.976562 Z M 22.851562 25.464844 C 17.160156 25.464844 12.546875 30.082031 12.542969 35.773438 L 12.542969 65.222656 C 12.546875 70.914062 17.160156 75.527344 22.851562 75.527344 L 69.96875 75.527344 C 75.585938 75.453125 80.277344 70.898438 80.277344 65.222656 L 80.277344 38.445312 C 79.589844 39.449219 79.011719 40.519531 78.523438 41.632812 C 77.765625 43.238281 75.402344 43.351562 74.667969 41.632812 C 73.101562 38.054688 70.480469 35.066406 67.15625 33.027344 L 65.074219 31.777344 C 63.644531 30.921875 63.640625 28.847656 65.074219 27.988281 L 67.15625 26.738281 C 67.804688 26.351562 68.421875 25.925781 69.015625 25.464844 Z M 76.597656 20.917969 C 74.527344 24.8125 71.375 27.644531 67.640625 29.882812 C 71.375 32.121094 74.527344 34.953125 76.597656 38.851562 C 78.664062 34.953125 81.816406 32.121094 85.550781 29.882812 C 81.820312 27.644531 78.667969 24.8125 76.597656 20.917969 Z M 76.597656 20.917969 " fill-opacity="1" fill-rule="evenodd"/></g><g fill="#ffffff" fill-opacity="1"><g transform="translate(57.434589, 42.462057)"><g><path d="M 4.203125 0.15625 C 3.609375 0.15625 3.140625 -0.0078125 2.796875 -0.34375 C 2.453125 -0.675781 2.28125 -1.117188 2.28125 -1.671875 C 2.28125 -2.210938 2.453125 -2.65625 2.796875 -3 C 3.140625 -3.351562 3.609375 -3.53125 4.203125 -3.53125 C 4.804688 -3.53125 5.28125 -3.363281 5.625 -3.03125 C 5.96875 -2.695312 6.140625 -2.253906 6.140625 -1.703125 C 6.140625 -1.148438 5.960938 -0.703125 5.609375 -0.359375 C 5.265625 -0.015625 4.796875 0.15625 4.203125 0.15625 Z M 4.203125 0.15625 "/></g></g></g></svg>